<svg version="1.2" xmlns="http://www.w3.org/2000/svg" xmlns:xlink="http://www.w3.org/1999/xlink" overflow="visible" preserveAspectRatio="none" viewBox="0 0 19.999989999999997 19.99972" width="19.999989999999997" height="19.99972"><g transform="translate(0, 0)"><g transform="translate(0, 3.552713678800501e-15) rotate(0)"><path d="M9.99986,10.8429c-1.12998,0 -2.04997,-0.91999 -2.04997,-2.05108c0,-1.13026 0.91999,-2.05025 2.04997,-2.05025c1.12998,0 2.04997,0.91999 2.04997,2.05025c0,1.1311 -0.91999,2.05108 -2.04997,2.05108zM9.99986,5.49159c-1.82247,0 -3.29995,1.47776 -3.29995,3.30023c0,1.82359 1.47748,3.30107 3.29995,3.30107c1.82247,0 3.29995,-1.47748 3.29995,-3.30107c0,-1.82247 -1.47748,-3.30023 -3.29995,-3.30023zM16.5856,15.75506c-1.72359,-1.10971 -4.09217,-1.75053 -6.58574,-1.75053c-2.49413,0 -4.86271,0.6411 -6.58574,1.75053c-1.34693,-1.53942 -2.16414,-3.55356 -2.16414,-5.7552c0,-4.82493 3.92495,-8.74988 8.74988,-8.74988c4.82493,0 8.75016,3.92495 8.75016,8.74988c0,2.20164 -0.81666,4.21577 -2.16441,5.7552zM9.99986,18.74974c-2.16219,0 -4.14355,-0.78804 -5.67214,-2.09219c1.49776,-0.89138 3.52384,-1.40304 5.67214,-1.40304c2.14803,0 4.17355,0.51138 5.67187,1.40331c-1.52859,1.30387 -3.50967,2.09192 -5.67187,2.09192zM9.99986,0c-5.52242,0 -9.99986,4.47744 -9.99986,9.99986c0,2.71802 1.08443,5.18271 2.8444,6.98518l0.41444,0.45583c0.01,-0.00917 0.02028,-0.01833 0.03028,-0.0275c1.77442,1.60748 4.12828,2.58635 6.71074,2.58635c2.58219,0 4.93604,-0.97888 6.71046,-2.5858c0.00944,0.00861 0.01889,0.01694 0.02833,0.02556l0.36527,-0.40222c1.79053,-1.80664 2.89607,-4.293 2.89607,-7.0374c0,-5.52242 -4.47772,-9.99986 -10.00014,-9.99986z" style="stroke: rgb(140, 140, 140); stroke-width: 0; stroke-linecap: butt; stroke-linejoin: miter; fill: rgb(0, 0, 0);" vector-effect="non-scaling-stroke"/></g><defs><path id="path-174236556400920312" d="M9.99986,10.8429c-1.12998,0 -2.04997,-0.91999 -2.04997,-2.05108c0,-1.13026 0.91999,-2.05025 2.04997,-2.05025c1.12998,0 2.04997,0.91999 2.04997,2.05025c0,1.1311 -0.91999,2.05108 -2.04997,2.05108zM9.99986,5.49159c-1.82247,0 -3.29995,1.47776 -3.29995,3.30023c0,1.82359 1.47748,3.30107 3.29995,3.30107c1.82247,0 3.29995,-1.47748 3.29995,-3.30107c0,-1.82247 -1.47748,-3.30023 -3.29995,-3.30023zM16.5856,15.75506c-1.72359,-1.10971 -4.09217,-1.75053 -6.58574,-1.75053c-2.49413,0 -4.86271,0.6411 -6.58574,1.75053c-1.34693,-1.53942 -2.16414,-3.55356 -2.16414,-5.7552c0,-4.82493 3.92495,-8.74988 8.74988,-8.74988c4.82493,0 8.75016,3.92495 8.75016,8.74988c0,2.20164 -0.81666,4.21577 -2.16441,5.7552zM9.99986,18.74974c-2.16219,0 -4.14355,-0.78804 -5.67214,-2.09219c1.49776,-0.89138 3.52384,-1.40304 5.67214,-1.40304c2.14803,0 4.17355,0.51138 5.67187,1.40331c-1.52859,1.30387 -3.50967,2.09192 -5.67187,2.09192zM9.99986,0c-5.52242,0 -9.99986,4.47744 -9.99986,9.99986c0,2.71802 1.08443,5.18271 2.8444,6.98518l0.41444,0.45583c0.01,-0.00917 0.02028,-0.01833 0.03028,-0.0275c1.77442,1.60748 4.12828,2.58635 6.71074,2.58635c2.58219,0 4.93604,-0.97888 6.71046,-2.5858c0.00944,0.00861 0.01889,0.01694 0.02833,0.02556l0.36527,-0.40222c1.79053,-1.80664 2.89607,-4.293 2.89607,-7.0374c0,-5.52242 -4.47772,-9.99986 -10.00014,-9.99986z" vector-effect="non-scaling-stroke"/></defs></g></svg>