<svg version="1.2" xmlns="http://www.w3.org/2000/svg" xmlns:xlink="http://www.w3.org/1999/xlink" overflow="visible" preserveAspectRatio="none" viewBox="0 0 16.55649055024382 20.00001" width="16.55649055024382" height="20.00001"><g transform="translate(0, 0)"><g transform="translate(2.751219083663159e-7, 0) rotate(0)"><path d="M8.27852,6.41667c0.92278,0 1.67389,0.75 1.67389,1.67222c0,0.92222 -0.75111,1.675 -1.67389,1.675c-0.92222,0 -1.67361,-0.75278 -1.67361,-1.675c0,-0.92222 0.75139,-1.67222 1.67361,-1.67222zM8.27852,5.16667c-1.615,0 -2.92361,1.30833 -2.92361,2.92222c0,1.61667 1.30861,2.925 2.92361,2.925c1.615,0 2.92389,-1.30833 2.92389,-2.925c0,-1.61389 -1.30889,-2.92222 -2.92389,-2.92222zM8.2788,1.25c1.88639,0 3.6525,0.72778 5,2.075c2.71778,2.74444 2.70889,7.2 -0.0225,9.92778l-4.9775,4.98056l-4.97861,-4.98056c-2.73,-2.72778 -2.74,-7.18333 0.00361,-9.95278c1.32278,-1.32222 3.08889,-2.05 4.975,-2.05zM8.2788,0c-2.12361,0 -4.2475,0.80556 -5.85861,2.41667l-0.03,0.03056c-3.195,3.225 -3.1875,8.47778 0.02611,11.69167l5.8625,5.86111l5.86139,-5.86111c3.21361,-3.21389 3.22111,-8.46667 0.02611,-11.69167l-0.02861,-0.03056c-1.61139,-1.61111 -3.735,-2.41667 -5.85889,-2.41667z" style="stroke: rgb(140, 140, 140); stroke-width: 0; stroke-linecap: butt; stroke-linejoin: miter; fill: rgb(0, 0, 0);" vector-effect="non-scaling-stroke"/></g><defs><path id="path-174236556401020314" d="M8.27852,6.41667c0.92278,0 1.67389,0.75 1.67389,1.67222c0,0.92222 -0.75111,1.675 -1.67389,1.675c-0.92222,0 -1.67361,-0.75278 -1.67361,-1.675c0,-0.92222 0.75139,-1.67222 1.67361,-1.67222zM8.27852,5.16667c-1.615,0 -2.92361,1.30833 -2.92361,2.92222c0,1.61667 1.30861,2.925 2.92361,2.925c1.615,0 2.92389,-1.30833 2.92389,-2.925c0,-1.61389 -1.30889,-2.92222 -2.92389,-2.92222zM8.2788,1.25c1.88639,0 3.6525,0.72778 5,2.075c2.71778,2.74444 2.70889,7.2 -0.0225,9.92778l-4.9775,4.98056l-4.97861,-4.98056c-2.73,-2.72778 -2.74,-7.18333 0.00361,-9.95278c1.32278,-1.32222 3.08889,-2.05 4.975,-2.05zM8.2788,0c-2.12361,0 -4.2475,0.80556 -5.85861,2.41667l-0.03,0.03056c-3.195,3.225 -3.1875,8.47778 0.02611,11.69167l5.8625,5.86111l5.86139,-5.86111c3.21361,-3.21389 3.22111,-8.46667 0.02611,-11.69167l-0.02861,-0.03056c-1.61139,-1.61111 -3.735,-2.41667 -5.85889,-2.41667z" vector-effect="non-scaling-stroke"/></defs></g></svg>